<svg version="1.1" id="Layer_1" xmlns="http://www.w3.org/2000/svg" xmlns:xlink="http://www.w3.org/1999/xlink" x="0px" y="0px"
	 width="100%" viewBox="0 0 128 128" enable-background="new 0 0 128 128" xml:space="preserve">
<path fill="#006E66" opacity="1.000000" stroke="none" 
	d="
M54.000000,1.000000 
	C61.020947,1.000000 68.041893,1.000000 75.683167,1.373652 
	C95.886482,5.199210 111.084633,15.266406 120.739296,32.665230 
	C124.404755,39.270809 126.298653,46.859432 129.000000,54.000000 
	C129.000000,61.020947 129.000000,68.041893 128.626343,75.683167 
	C124.800606,95.886337 114.733734,111.084709 97.334793,120.739288 
	C90.729172,124.404709 83.140572,126.298645 76.000000,129.000000 
	C68.979050,129.000000 61.958103,129.000000 54.316826,128.626343 
	C45.003460,127.292122 37.322533,123.739883 30.554611,119.008522 
	C44.041039,118.976341 57.064980,118.999619 70.088409,118.928429 
	C71.818184,118.918983 73.545349,118.429520 75.579849,117.856339 
	C75.976631,109.648232 76.067299,101.746155 76.615425,93.836227 
	C86.875565,93.825333 96.678352,93.793846 106.480835,93.835953 
	C109.558754,93.849174 111.808601,92.934082 111.785095,89.434631 
	C111.703751,77.322159 111.546509,65.210190 111.485931,52.672977 
	C111.530907,51.100788 111.508102,49.953655 111.630928,48.371223 
	C111.817764,41.611584 111.739349,35.283417 111.941727,28.964243 
	C112.079338,24.667253 110.267082,22.968929 106.000191,23.049025 
	C99.015045,23.180141 92.023811,22.986567 85.031387,22.475964 
	C85.026657,20.358793 85.028610,18.695599 85.024200,17.032421 
	C85.004532,9.614326 83.843193,8.455183 76.270096,8.421537 
	C70.282745,8.394937 64.295181,8.415917 58.307716,8.415911 
	C45.002968,8.415895 45.003017,8.415932 44.971905,21.934736 
	C44.971138,22.267363 44.965946,22.599979 44.500854,23.000360 
	C37.046600,23.175451 30.054314,23.282785 22.684521,23.315845 
	C20.939280,24.559837 18.440029,25.839138 18.393061,27.202892 
	C18.145014,34.405235 18.514719,41.628849 18.573151,49.310173 
	C18.451832,53.828606 18.427538,57.881950 18.073421,62.056419 
	C17.531651,62.277275 17.319702,62.377007 16.688808,62.399357 
	C12.388439,61.687862 10.375048,63.023846 10.963864,67.248405 
	C11.141029,68.519508 11.102695,69.820648 11.100004,71.566109 
	C10.990564,81.335411 10.944201,90.646622 10.567290,99.829605 
	C7.157831,91.800919 4.078916,83.900459 1.000001,76.000000 
	C1.000000,68.979050 1.000000,61.958103 1.373655,54.316826 
	C5.199300,34.113571 15.266343,18.915327 32.665234,9.260712 
	C39.270828,5.595277 46.859436,3.701353 54.000000,1.000000 
z"/>
<path fill="#FFFFFF" opacity="1.000000" stroke="none" 
	d="
M53.531342,1.000000 
	C46.859436,3.701353 39.270828,5.595277 32.665234,9.260712 
	C15.266343,18.915327 5.199300,34.113571 1.373655,53.848248 
	C1.000000,36.406563 1.000000,18.813124 1.000000,1.000000 
	C18.353609,1.000000 35.708145,1.000000 53.531342,1.000000 
z"/>
<path fill="#FFFFFF" opacity="1.000000" stroke="none" 
	d="
M129.000000,53.531342 
	C126.298653,46.859432 124.404755,39.270809 120.739296,32.665230 
	C111.084633,15.266406 95.886482,5.199210 76.151749,1.373652 
	C93.593437,1.000000 111.186867,1.000000 129.000000,1.000000 
	C129.000000,18.353609 129.000000,35.708145 129.000000,53.531342 
z"/>
<path fill="#FFFFFF" opacity="1.000000" stroke="none" 
	d="
M76.468658,129.000000 
	C83.140572,126.298645 90.729172,124.404709 97.334793,120.739288 
	C114.733734,111.084709 124.800606,95.886337 128.626343,76.151749 
	C129.000000,93.593437 129.000000,111.186867 129.000000,129.000000 
	C111.646393,129.000000 94.291855,129.000000 76.468658,129.000000 
z"/>
<path fill="#FFFFFF" opacity="1.000000" stroke="none" 
	d="
M1.000001,76.468658 
	C4.078916,83.900459 7.157831,91.800919 10.598612,100.297729 
	C10.973124,104.979454 11.300624,109.094635 10.917545,113.142555 
	C10.454052,118.040199 12.474635,119.697914 17.510330,119.015411 
	C21.735970,118.978416 25.499735,118.940727 29.468185,118.951202 
	C29.672874,118.999374 30.091967,119.034454 30.091967,119.034454 
	C37.322533,123.739883 45.003460,127.292122 53.848251,128.626343 
	C36.406567,129.000000 18.813131,129.000000 1.000000,129.000000 
	C1.000000,111.646393 1.000000,94.291855 1.000001,76.468658 
z"/>
<path fill="#FCF3F4" opacity="1.000000" stroke="none" 
	d="
M29.263498,118.903038 
	C25.499735,118.940727 21.735970,118.978416 17.506996,118.545181 
	C17.028179,102.529327 17.014576,86.984406 17.462643,71.359772 
	C37.222618,71.247826 56.520924,71.215576 75.880966,71.636749 
	C76.014458,79.341469 76.086212,86.592766 76.157959,93.844070 
	C76.067299,101.746155 75.976631,109.648232 75.095360,117.802254 
	C60.706604,118.026756 47.108368,117.971725 33.510426,118.013031 
	C32.093895,118.017326 30.679098,118.592651 29.263498,118.903038 
M39.527203,97.870049 
	C38.499336,102.121727 37.471470,106.373405 36.460804,110.553932 
	C40.441658,111.865227 41.732510,110.495735 42.431206,107.168335 
	C43.858585,100.370697 45.782997,93.678230 47.458546,86.931480 
	C48.071259,84.464340 48.558739,81.966087 49.082062,79.579140 
	C45.400158,78.327682 43.924164,79.578323 43.271923,82.600952 
	C42.224747,87.453804 40.953087,92.258209 39.527203,97.870049 
M54.926605,100.472122 
	C53.848789,101.649796 52.770973,102.827469 51.486115,104.231369 
	C52.967739,105.432388 54.052746,106.311905 54.134075,106.377838 
	C58.534813,102.098419 62.529877,98.213493 66.132057,94.710625 
	C62.653145,91.109016 58.866539,87.188866 54.712860,82.888695 
	C53.654896,83.861305 52.605614,84.825935 50.627880,86.644112 
	C54.295986,89.660233 57.343803,92.166321 61.099037,95.254082 
	C58.738159,97.213043 57.080563,98.588455 54.926605,100.472122 
M25.101820,89.603966 
	C23.150917,91.143623 21.200014,92.683273 19.216095,94.248985 
	C24.037928,99.095558 27.964838,103.042625 32.143017,107.242241 
	C33.305439,106.251755 34.379353,105.336678 35.598450,104.297897 
	C32.330444,100.877686 29.630388,98.051880 25.969095,94.220062 
	C29.313547,91.469475 32.357437,88.966080 35.649548,86.258545 
	C34.094471,84.879562 33.043095,83.947243 31.406929,82.496346 
	C29.332365,84.857780 27.466309,86.981873 25.101820,89.603966 
z"/>
<path fill="#F8BB5E" opacity="1.000000" stroke="none" 
	d="
M23.062027,23.390120 
	C30.054314,23.282785 37.046600,23.175451 44.801628,23.237164 
	C47.736885,23.200287 49.909397,22.994368 52.535126,22.891531 
	C61.297867,22.926464 69.607391,22.858316 78.202179,23.048586 
	C80.670021,23.181318 82.852577,23.055632 85.035141,22.929945 
	C92.023811,22.986567 99.015045,23.180141 106.000191,23.049025 
	C110.267082,22.968929 112.079338,24.667253 111.941727,28.964243 
	C111.739349,35.283417 111.817764,41.611584 111.196983,48.402481 
	C105.077164,48.932644 99.536934,48.996243 93.669273,48.859253 
	C90.295090,48.845543 87.248329,49.032425 83.722885,49.163429 
	C70.960869,49.088528 58.677532,49.069508 46.037910,48.857025 
	C42.606083,48.887218 39.530537,49.110870 35.970787,49.244358 
	C31.348907,49.041046 27.211231,48.927895 23.060528,48.357880 
	C23.052345,39.730717 23.057186,31.560419 23.062027,23.390120 
z"/>
<path fill="#DBA050" opacity="1.000000" stroke="none" 
	d="
M76.615433,93.836227 
	C76.086212,86.592766 76.014458,79.341469 75.944305,71.178795 
	C76.101784,62.079651 76.101746,62.093674 68.143593,62.073208 
	C53.096916,62.034512 38.050282,61.977966 23.006184,61.525780 
	C24.173132,53.040863 24.173155,53.043713 32.365803,52.975945 
	C33.669914,52.965157 34.973709,52.915710 36.485439,53.182869 
	C40.373272,57.300339 43.921345,57.118858 46.934685,52.982224 
	C59.581257,52.967388 71.790344,52.950470 84.166557,53.265915 
	C87.992706,57.305439 91.421829,57.074703 94.580109,52.948433 
	C100.499336,53.004074 105.958740,53.051056 111.418152,53.098034 
	C111.546509,65.210190 111.703751,77.322159 111.785095,89.434631 
	C111.808601,92.934082 109.558754,93.849174 106.480835,93.835953 
	C96.678352,93.793846 86.875565,93.825333 76.615433,93.836227 
z"/>
<path fill="#B4D0D4" opacity="1.000000" stroke="none" 
	d="
M23.003632,61.928837 
	C38.050282,61.977966 53.096916,62.034512 68.143593,62.073208 
	C76.101746,62.093674 76.101784,62.079651 75.882568,70.725372 
	C56.520924,71.215576 37.222618,71.247826 17.432812,71.245590 
	C16.941309,71.211113 16.935459,70.975151 17.004498,70.624374 
	C17.084942,67.674644 17.096348,65.075691 17.107754,62.476742 
	C17.319702,62.377007 17.531651,62.277275 18.449825,62.111168 
	C20.438581,62.006138 21.721106,61.967487 23.003632,61.928837 
z"/>
<path fill="#DFAB57" opacity="1.000000" stroke="none" 
	d="
M85.031387,22.475964 
	C82.852577,23.055632 80.670021,23.181318 78.161545,22.633968 
	C78.582207,17.178736 76.581223,15.478715 71.792336,15.935370 
	C67.682632,16.327261 63.505939,16.016016 59.358868,16.016644 
	C52.327099,16.017708 52.327099,16.018017 52.081909,22.788448 
	C49.909397,22.994368 47.736885,23.200287 45.263596,23.169403 
	C44.965946,22.599979 44.971138,22.267363 44.971905,21.934736 
	C45.003017,8.415932 45.002968,8.415895 58.307716,8.415911 
	C64.295181,8.415917 70.282745,8.394937 76.270096,8.421537 
	C83.843193,8.455183 85.004532,9.614326 85.024200,17.032421 
	C85.028610,18.695599 85.026657,20.358793 85.031387,22.475964 
z"/>
<path fill="#FFF2B5" opacity="1.000000" stroke="none" 
	d="
M16.971142,71.325294 
	C17.014576,86.984406 17.028179,102.529327 17.045118,118.544487 
	C12.474635,119.697914 10.454052,118.040199 10.917545,113.142555 
	C11.300624,109.094635 10.973124,104.979454 10.929157,100.425964 
	C10.944201,90.646622 10.990564,81.335411 11.513536,71.554733 
	C13.638583,71.048569 15.287021,71.011856 16.935459,70.975151 
	C16.935459,70.975151 16.941309,71.211113 16.971142,71.325294 
z"/>
<path fill="#E5AC56" opacity="1.000000" stroke="none" 
	d="
M22.684521,23.315845 
	C23.057186,31.560419 23.052345,39.730717 22.692661,48.410751 
	C21.115273,48.895348 19.892721,48.870216 18.670172,48.845085 
	C18.514719,41.628849 18.145014,34.405235 18.393061,27.202892 
	C18.440029,25.839138 20.939280,24.559837 22.684521,23.315845 
z"/>
<path fill="#BE8F4B" opacity="1.000000" stroke="none" 
	d="
M18.573151,49.310173 
	C19.892721,48.870216 21.115273,48.895348 22.705688,48.867615 
	C27.211231,48.927895 31.348907,49.041046 35.978565,49.595741 
	C36.406246,50.986237 36.341949,51.935184 36.277649,52.884136 
	C34.973709,52.915710 33.669914,52.965157 32.365803,52.975945 
	C24.173155,53.043713 24.173132,53.040863 23.006184,61.525780 
	C21.721106,61.967487 20.438581,62.006138 18.779650,61.990044 
	C18.427538,57.881950 18.451832,53.828606 18.573151,49.310173 
z"/>
<path fill="#BD934E" opacity="1.000000" stroke="none" 
	d="
M111.485931,52.672977 
	C105.958740,53.051056 100.499336,53.004074 94.516449,52.565052 
	C93.994209,51.135284 93.995453,50.097565 93.996696,49.059841 
	C99.536934,48.996243 105.077164,48.932644 111.051346,48.837784 
	C111.508102,49.953655 111.530907,51.100788 111.485931,52.672977 
z"/>
<path fill="#95B6BF" opacity="1.000000" stroke="none" 
	d="
M17.004498,70.624374 
	C15.287021,71.011856 13.638583,71.048569 11.576612,71.096649 
	C11.102695,69.820648 11.141029,68.519508 10.963864,67.248405 
	C10.375048,63.023846 12.388439,61.687862 16.688808,62.399357 
	C17.096348,65.075691 17.084942,67.674644 17.004498,70.624374 
z"/>
<path fill="#CEDAC7" opacity="1.000000" stroke="none" 
	d="
M29.468185,118.951202 
	C30.679098,118.592651 32.093895,118.017326 33.510426,118.013031 
	C47.108368,117.971725 60.706604,118.026756 74.789246,118.108276 
	C73.545349,118.429520 71.818184,118.918983 70.088409,118.928429 
	C57.064980,118.999619 44.041039,118.976341 30.554611,119.008522 
	C30.091967,119.034454 29.672874,118.999374 29.468185,118.951202 
z"/>
<path fill="#0F4780" opacity="1.000000" stroke="none" 
	d="
M39.651749,97.476570 
	C40.953087,92.258209 42.224747,87.453804 43.271923,82.600952 
	C43.924164,79.578323 45.400158,78.327682 49.082062,79.579140 
	C48.558739,81.966087 48.071259,84.464340 47.458546,86.931480 
	C45.782997,93.678230 43.858585,100.370697 42.431206,107.168335 
	C41.732510,110.495735 40.441658,111.865227 36.460804,110.553932 
	C37.471470,106.373405 38.499336,102.121727 39.651749,97.476570 
z"/>
<path fill="#0B447F" opacity="1.000000" stroke="none" 
	d="
M55.174786,100.217987 
	C57.080563,98.588455 58.738159,97.213043 61.099037,95.254082 
	C57.343803,92.166321 54.295986,89.660233 50.627880,86.644112 
	C52.605614,84.825935 53.654896,83.861305 54.712860,82.888695 
	C58.866539,87.188866 62.653145,91.109016 66.132057,94.710625 
	C62.529877,98.213493 58.534813,102.098419 54.134075,106.377838 
	C54.052746,106.311905 52.967739,105.432388 51.486115,104.231369 
	C52.770973,102.827469 53.848789,101.649796 55.174786,100.217987 
z"/>
<path fill="#0C457F" opacity="1.000000" stroke="none" 
	d="
M25.351036,89.354965 
	C27.466309,86.981873 29.332365,84.857780 31.406929,82.496346 
	C33.043095,83.947243 34.094471,84.879562 35.649548,86.258545 
	C32.357437,88.966080 29.313547,91.469475 25.969095,94.220062 
	C29.630388,98.051880 32.330444,100.877686 35.598450,104.297897 
	C34.379353,105.336678 33.305439,106.251755 32.143017,107.242241 
	C27.964838,103.042625 24.037928,99.095558 19.216095,94.248985 
	C21.200014,92.683273 23.150917,91.143623 25.351036,89.354965 
z"/>
<path fill="#046F66" opacity="1.000000" stroke="none" 
	d="
M52.535126,22.891531 
	C52.327099,16.018017 52.327099,16.017708 59.358868,16.016644 
	C63.505939,16.016016 67.682632,16.327261 71.792336,15.935370 
	C76.581223,15.478715 78.582207,17.178736 77.876266,22.375549 
	C69.607391,22.858316 61.297867,22.926464 52.535126,22.891531 
z"/>
<path fill="#CE9047" opacity="1.000000" stroke="none" 
	d="
M83.999420,52.933552 
	C71.790344,52.950470 59.581257,52.967388 46.870079,52.593323 
	C46.376724,51.151718 46.385460,50.101101 46.394196,49.050484 
	C58.677532,49.069508 70.960869,49.088528 83.743561,49.532291 
	C84.161743,50.949207 84.080582,51.941380 83.999420,52.933552 
z"/>
<path fill="#FEF0E6" opacity="1.000000" stroke="none" 
	d="
M84.166550,53.265915 
	C84.080582,51.941380 84.161743,50.949207 84.222237,49.588173 
	C87.248329,49.032425 90.295090,48.845543 93.669273,48.859253 
	C93.995453,50.097565 93.994209,51.135284 94.056625,52.556389 
	C91.421829,57.074703 87.992706,57.305439 84.166550,53.265915 
z"/>
<path fill="#FEEFE3" opacity="1.000000" stroke="none" 
	d="
M46.037910,48.857025 
	C46.385460,50.101101 46.376724,51.151718 46.432594,52.591240 
	C43.921345,57.118858 40.373272,57.300339 36.485439,53.182869 
	C36.341949,51.935184 36.406246,50.986237 36.462769,49.685905 
	C39.530537,49.110870 42.606083,48.887218 46.037910,48.857025 
z"/>
</svg>