<?xml version="1.0" standalone="no"?>
<!DOCTYPE svg PUBLIC "-//W3C//DTD SVG 20010904//EN"
 "http://www.w3.org/TR/2001/REC-SVG-20010904/DTD/svg10.dtd">
<svg version="1.0" xmlns="http://www.w3.org/2000/svg"
 width="512.000000pt" height="512.000000pt" viewBox="0 0 512.000000 512.000000"
 preserveAspectRatio="xMidYMid meet">

<g transform="translate(0.000000,512.000000) scale(0.100000,-0.100000)"
fill="#000000" stroke="none">
<path d="M800 4038 l0 -231 137 6 c75 4 867 7 1760 7 l1623 0 0 225 0 225
-1760 0 -1760 0 0 -232z m480 7 l0 -75 -85 0 -85 0 0 75 0 75 85 0 85 0 0 -75z
m300 0 l0 -75 -85 0 -85 0 0 75 0 75 85 0 85 0 0 -75z m300 0 l0 -76 -82 3
-83 3 -3 59 c-4 86 -5 86 88 86 l80 0 0 -75z"/>
<path d="M409 3783 c-62 -53 -59 18 -59 -1263 l0 -1170 -175 0 -175 0 0 -152
c0 -139 2 -158 24 -203 25 -55 80 -109 135 -133 32 -13 299 -15 2401 -13 2364
3 2365 3 2413 23 26 12 63 39 83 61 51 60 64 117 64 279 l0 138 -180 0 -180 0
0 1180 c0 1304 4 1219 -63 1260 -28 18 -51 20 -199 20 l-168 0 0 -110 0 -110
110 0 110 0 0 -1120 0 -1120 -1990 0 -1990 0 0 1120 0 1120 110 0 110 0 0 110
0 110 -174 0 -174 0 -33 -27z"/>
<path d="M1940 3515 c0 -2 -72 -273 -160 -602 -88 -328 -159 -597 -157 -598 1
-1 30 -9 65 -18 47 -11 64 -12 67 -4 10 31 315 1177 315 1185 0 5 -27 16 -60
25 -65 18 -70 19 -70 12z"/>
<path d="M1267 3162 c-174 -175 -207 -213 -207 -237 0 -24 33 -62 202 -232
111 -112 207 -203 213 -203 6 0 31 20 55 45 l44 45 -174 175 -175 175 173 173
172 172 -48 48 -48 47 -207 -208z"/>
<path d="M2167 3322 l-47 -47 175 -175 175 -175 -172 -172 -173 -173 48 -47
47 -48 205 205 c188 187 205 208 205 239 0 32 -18 52 -202 238 -111 112 -205
203 -208 203 -3 0 -27 -21 -53 -48z"/>
</g>
</svg>
